<svg width="193" height="183" viewBox="0 0 193 183" fill="none" xmlns="http://www.w3.org/2000/svg">
<g clip-path="url(#clip0)">
<rect width="193" height="183" fill="white" fill-opacity="0.1"/>
<path d="M174.104 6.15925L173.406 6.8182L176.248 18.3262L164.941 14.808L164.295 15.4175L175.761 27.565L185.569 18.3067L174.104 6.15925ZM184.331 18.2879L175.813 26.3271L166.176 16.117L176.627 19.3219L177.238 18.7453L174.595 7.97306L184.331 18.2879ZM141.199 37.25L132.35 45.6022L135.25 48.6739L140.922 43.32L142.372 44.8559L137.659 49.3038L140.411 52.2185L145.123 47.7706L146.589 49.3239L140.917 54.6779L143.816 57.7496L152.665 49.3975L141.199 37.25ZM109.344 67.2845L108.646 67.9434L111.488 79.4514L100.181 75.9332L99.5352 76.5427L111.001 88.6902L120.81 79.4319L109.344 67.2845ZM119.571 79.4131L111.054 87.4523L101.416 77.2422L111.867 80.4471L112.478 79.8705L109.835 69.0983L119.571 79.4131ZM76.4394 98.3752L67.5906 106.727L70.49 109.799L76.1623 104.445L77.612 105.981L72.8996 110.429L75.6507 113.344L80.3631 108.896L81.8293 110.449L76.157 115.803L79.0563 118.875L87.9052 110.523L76.4394 98.3752ZM46.1354 149.948L55.4729 141.135L44.0072 128.987L39.2773 133.452C38.265 134.407 37.6091 135.367 37.3096 136.332C37.0108 137.274 36.9724 138.212 37.1944 139.147C37.4164 140.081 37.8734 140.915 38.5653 141.648C39.4219 142.556 40.47 143.107 41.7094 143.301C42.9378 143.484 44.0866 143.29 45.1556 142.721L46.1354 149.948ZM43.5171 130.671L45.0299 141.784C44.0965 142.357 43.0828 142.577 41.9888 142.443C40.8948 142.31 39.9689 141.842 39.2111 141.039C38.607 140.399 38.215 139.669 38.0349 138.849C37.8549 138.028 37.9181 137.21 38.2247 136.392C38.495 135.653 39.0433 134.894 39.8694 134.114L43.5171 130.671ZM44.3663 130.661L50.2804 136.927L45.7949 141.161L44.3663 130.661ZM54.2176 141.098L46.7476 148.149L45.9516 142.201L46.5091 141.708L50.8899 137.573L54.2176 141.098ZM12.4999 158.726L2.13268 168.512L13.7554 171.105L18.4504 176.079L19.0962 175.47L14.4012 170.496L12.4999 158.726Z" fill="url(#paint0_linear)"/>
<path d="M174.104 6.15925L173.406 6.8182L176.248 18.3262L164.941 14.808L164.295 15.4175L175.761 27.565L185.569 18.3067L174.104 6.15925ZM184.331 18.2879L175.813 26.3271L166.176 16.117L176.627 19.3219L177.238 18.7453L174.595 7.97306L184.331 18.2879ZM141.199 37.25L132.35 45.6022L135.25 48.6739L140.922 43.32L142.372 44.8559L137.659 49.3038L140.411 52.2185L145.123 47.7706L146.589 49.3239L140.917 54.6779L143.816 57.7496L152.665 49.3975L141.199 37.25ZM109.344 67.2845L108.646 67.9434L111.488 79.4514L100.181 75.9332L99.5352 76.5427L111.001 88.6902L120.81 79.4319L109.344 67.2845ZM119.571 79.4131L111.054 87.4523L101.416 77.2422L111.867 80.4471L112.478 79.8705L109.835 69.0983L119.571 79.4131ZM76.4394 98.3752L67.5906 106.727L70.49 109.799L76.1623 104.445L77.612 105.981L72.8996 110.429L75.6507 113.344L80.3631 108.896L81.8293 110.449L76.157 115.803L79.0563 118.875L87.9052 110.523L76.4394 98.3752ZM46.1354 149.948L55.4729 141.135L44.0072 128.987L39.2773 133.452C38.265 134.407 37.6091 135.367 37.3096 136.332C37.0108 137.274 36.9724 138.212 37.1944 139.147C37.4164 140.081 37.8734 140.915 38.5653 141.648C39.4219 142.556 40.47 143.107 41.7094 143.301C42.9378 143.484 44.0866 143.29 45.1556 142.721L46.1354 149.948ZM43.5171 130.671L45.0299 141.784C44.0965 142.357 43.0828 142.577 41.9888 142.443C40.8948 142.31 39.9689 141.842 39.2111 141.039C38.607 140.399 38.215 139.669 38.0349 138.849C37.8549 138.028 37.9181 137.21 38.2247 136.392C38.495 135.653 39.0433 134.894 39.8694 134.114L43.5171 130.671ZM44.3663 130.661L50.2804 136.927L45.7949 141.161L44.3663 130.661ZM54.2176 141.098L46.7476 148.149L45.9516 142.201L46.5091 141.708L50.8899 137.573L54.2176 141.098ZM12.4999 158.726L2.13268 168.512L13.7554 171.105L18.4504 176.079L19.0962 175.47L14.4012 170.496L12.4999 158.726Z" fill="url(#paint1_linear)"/>
<path d="M174.104 6.15925L173.406 6.8182L176.248 18.3262L164.941 14.808L164.295 15.4175L175.761 27.565L185.569 18.3067L174.104 6.15925ZM184.331 18.2879L175.813 26.3271L166.176 16.117L176.627 19.3219L177.238 18.7453L174.595 7.97306L184.331 18.2879ZM141.199 37.25L132.35 45.6022L135.25 48.6739L140.922 43.32L142.372 44.8559L137.659 49.3038L140.411 52.2185L145.123 47.7706L146.589 49.3239L140.917 54.6779L143.816 57.7496L152.665 49.3975L141.199 37.25ZM109.344 67.2845L108.646 67.9434L111.488 79.4514L100.181 75.9332L99.5352 76.5427L111.001 88.6902L120.81 79.4319L109.344 67.2845ZM119.571 79.4131L111.054 87.4523L101.416 77.2422L111.867 80.4471L112.478 79.8705L109.835 69.0983L119.571 79.4131ZM76.4394 98.3752L67.5906 106.727L70.49 109.799L76.1623 104.445L77.612 105.981L72.8996 110.429L75.6507 113.344L80.3631 108.896L81.8293 110.449L76.157 115.803L79.0563 118.875L87.9052 110.523L76.4394 98.3752ZM46.1354 149.948L55.4729 141.135L44.0072 128.987L39.2773 133.452C38.265 134.407 37.6091 135.367 37.3096 136.332C37.0108 137.274 36.9724 138.212 37.1944 139.147C37.4164 140.081 37.8734 140.915 38.5653 141.648C39.4219 142.556 40.47 143.107 41.7094 143.301C42.9378 143.484 44.0866 143.29 45.1556 142.721L46.1354 149.948ZM43.5171 130.671L45.0299 141.784C44.0965 142.357 43.0828 142.577 41.9888 142.443C40.8948 142.31 39.9689 141.842 39.2111 141.039C38.607 140.399 38.215 139.669 38.0349 138.849C37.8549 138.028 37.9181 137.21 38.2247 136.392C38.495 135.653 39.0433 134.894 39.8694 134.114L43.5171 130.671ZM44.3663 130.661L50.2804 136.927L45.7949 141.161L44.3663 130.661ZM54.2176 141.098L46.7476 148.149L45.9516 142.201L46.5091 141.708L50.8899 137.573L54.2176 141.098ZM12.4999 158.726L2.13268 168.512L13.7554 171.105L18.4504 176.079L19.0962 175.47L14.4012 170.496L12.4999 158.726Z" fill="url(#paint2_linear)"/>
<path d="M111.104 6.15925L110.406 6.8182L113.248 18.3262L101.941 14.808L101.295 15.4175L112.761 27.565L122.569 18.3067L111.104 6.15925ZM121.331 18.2879L112.813 26.3271L103.176 16.117L113.627 19.3219L114.238 18.7453L111.595 7.97306L121.331 18.2879ZM78.1993 37.25L69.3505 45.6022L72.2498 48.6739L77.9221 43.32L79.3718 44.8559L74.6594 49.3038L77.4106 52.2185L82.1229 47.7706L83.5891 49.3239L77.9168 54.6779L80.8162 57.7496L89.665 49.3975L78.1993 37.25ZM46.3439 67.2845L45.6458 67.9434L48.4884 79.4514L37.181 75.9332L36.5352 76.5427L48.0009 88.6902L57.8096 79.4319L46.3439 67.2845ZM56.5708 79.4131L48.0536 87.4523L38.4165 77.2422L48.8671 80.4471L49.4779 79.8705L46.8348 69.0983L56.5708 79.4131ZM13.4394 98.3752L4.59063 106.727L7.49001 109.799L13.1623 104.445L14.612 105.981L9.89963 110.429L12.6507 113.344L17.3631 108.896L18.8293 110.449L13.157 115.803L16.0563 118.875L24.9052 110.523L13.4394 98.3752ZM-16.8646 149.948L-7.52713 141.135L-18.9928 128.987L-23.7227 133.452C-24.735 134.407 -25.3909 135.367 -25.6904 136.332C-25.9892 137.274 -26.0276 138.212 -25.8056 139.147C-25.5836 140.081 -25.1266 140.915 -24.4347 141.648C-23.5781 142.556 -22.53 143.107 -21.2906 143.301C-20.0622 143.484 -18.9134 143.29 -17.8444 142.721L-16.8646 149.948ZM-19.4829 130.671L-17.9701 141.784C-18.9035 142.357 -19.9172 142.577 -21.0112 142.443C-22.1052 142.31 -23.0311 141.842 -23.7889 141.039C-24.393 140.399 -24.785 139.669 -24.9651 138.849C-25.1451 138.028 -25.0819 137.21 -24.7753 136.392C-24.505 135.653 -23.9567 134.894 -23.1306 134.114L-19.4829 130.671ZM-18.6337 130.661L-12.7196 136.927L-17.2051 141.161L-18.6337 130.661ZM-8.78243 141.098L-16.2524 148.149L-17.0484 142.201L-16.4909 141.708L-12.1101 137.573L-8.78243 141.098ZM-50.5001 158.726L-60.8673 168.512L-49.2446 171.105L-44.5496 176.079L-43.9038 175.47L-48.5988 170.496L-50.5001 158.726Z" fill="url(#paint3_linear)"/>
<path d="M111.104 6.15925L110.406 6.8182L113.248 18.3262L101.941 14.808L101.295 15.4175L112.761 27.565L122.569 18.3067L111.104 6.15925ZM121.331 18.2879L112.813 26.3271L103.176 16.117L113.627 19.3219L114.238 18.7453L111.595 7.97306L121.331 18.2879ZM78.1993 37.25L69.3505 45.6022L72.2498 48.6739L77.9221 43.32L79.3718 44.8559L74.6594 49.3038L77.4106 52.2185L82.1229 47.7706L83.5891 49.3239L77.9168 54.6779L80.8162 57.7496L89.665 49.3975L78.1993 37.25ZM46.3439 67.2845L45.6458 67.9434L48.4884 79.4514L37.181 75.9332L36.5352 76.5427L48.0009 88.6902L57.8096 79.4319L46.3439 67.2845ZM56.5708 79.4131L48.0536 87.4523L38.4165 77.2422L48.8671 80.4471L49.4779 79.8705L46.8348 69.0983L56.5708 79.4131ZM13.4394 98.3752L4.59063 106.727L7.49001 109.799L13.1623 104.445L14.612 105.981L9.89963 110.429L12.6507 113.344L17.3631 108.896L18.8293 110.449L13.157 115.803L16.0563 118.875L24.9052 110.523L13.4394 98.3752ZM-16.8646 149.948L-7.52713 141.135L-18.9928 128.987L-23.7227 133.452C-24.735 134.407 -25.3909 135.367 -25.6904 136.332C-25.9892 137.274 -26.0276 138.212 -25.8056 139.147C-25.5836 140.081 -25.1266 140.915 -24.4347 141.648C-23.5781 142.556 -22.53 143.107 -21.2906 143.301C-20.0622 143.484 -18.9134 143.29 -17.8444 142.721L-16.8646 149.948ZM-19.4829 130.671L-17.9701 141.784C-18.9035 142.357 -19.9172 142.577 -21.0112 142.443C-22.1052 142.31 -23.0311 141.842 -23.7889 141.039C-24.393 140.399 -24.785 139.669 -24.9651 138.849C-25.1451 138.028 -25.0819 137.21 -24.7753 136.392C-24.505 135.653 -23.9567 134.894 -23.1306 134.114L-19.4829 130.671ZM-18.6337 130.661L-12.7196 136.927L-17.2051 141.161L-18.6337 130.661ZM-8.78243 141.098L-16.2524 148.149L-17.0484 142.201L-16.4909 141.708L-12.1101 137.573L-8.78243 141.098ZM-50.5001 158.726L-60.8673 168.512L-49.2446 171.105L-44.5496 176.079L-43.9038 175.47L-48.5988 170.496L-50.5001 158.726Z" fill="url(#paint4_linear)"/>
<path d="M111.104 6.15925L110.406 6.8182L113.248 18.3262L101.941 14.808L101.295 15.4175L112.761 27.565L122.569 18.3067L111.104 6.15925ZM121.331 18.2879L112.813 26.3271L103.176 16.117L113.627 19.3219L114.238 18.7453L111.595 7.97306L121.331 18.2879ZM78.1993 37.25L69.3505 45.6022L72.2498 48.6739L77.9221 43.32L79.3718 44.8559L74.6594 49.3038L77.4106 52.2185L82.1229 47.7706L83.5891 49.3239L77.9168 54.6779L80.8162 57.7496L89.665 49.3975L78.1993 37.25ZM46.3439 67.2845L45.6458 67.9434L48.4884 79.4514L37.181 75.9332L36.5352 76.5427L48.0009 88.6902L57.8096 79.4319L46.3439 67.2845ZM56.5708 79.4131L48.0536 87.4523L38.4165 77.2422L48.8671 80.4471L49.4779 79.8705L46.8348 69.0983L56.5708 79.4131ZM13.4394 98.3752L4.59063 106.727L7.49001 109.799L13.1623 104.445L14.612 105.981L9.89963 110.429L12.6507 113.344L17.3631 108.896L18.8293 110.449L13.157 115.803L16.0563 118.875L24.9052 110.523L13.4394 98.3752ZM-16.8646 149.948L-7.52713 141.135L-18.9928 128.987L-23.7227 133.452C-24.735 134.407 -25.3909 135.367 -25.6904 136.332C-25.9892 137.274 -26.0276 138.212 -25.8056 139.147C-25.5836 140.081 -25.1266 140.915 -24.4347 141.648C-23.5781 142.556 -22.53 143.107 -21.2906 143.301C-20.0622 143.484 -18.9134 143.29 -17.8444 142.721L-16.8646 149.948ZM-19.4829 130.671L-17.9701 141.784C-18.9035 142.357 -19.9172 142.577 -21.0112 142.443C-22.1052 142.31 -23.0311 141.842 -23.7889 141.039C-24.393 140.399 -24.785 139.669 -24.9651 138.849C-25.1451 138.028 -25.0819 137.21 -24.7753 136.392C-24.505 135.653 -23.9567 134.894 -23.1306 134.114L-19.4829 130.671ZM-18.6337 130.661L-12.7196 136.927L-17.2051 141.161L-18.6337 130.661ZM-8.78243 141.098L-16.2524 148.149L-17.0484 142.201L-16.4909 141.708L-12.1101 137.573L-8.78243 141.098ZM-50.5001 158.726L-60.8673 168.512L-49.2446 171.105L-44.5496 176.079L-43.9038 175.47L-48.5988 170.496L-50.5001 158.726Z" fill="url(#paint5_linear)"/>
<path d="M45.1038 6.15925L44.4056 6.8182L47.2482 18.3262L35.9408 14.808L35.295 15.4175L46.7607 27.565L56.5695 18.3067L45.1038 6.15925ZM55.3306 18.2879L46.8134 26.3271L37.1763 16.117L47.6269 19.3219L48.2378 18.7453L45.5947 7.97306L55.3306 18.2879ZM12.1993 37.25L3.35046 45.6022L6.24983 48.6739L11.9221 43.32L13.3718 44.8559L8.65945 49.3038L11.4106 52.2185L16.1229 47.7706L17.5891 49.3239L11.9168 54.6779L14.8162 57.7496L23.665 49.3975L12.1993 37.25ZM-19.6561 67.2845L-20.3542 67.9434L-17.5116 79.4514L-28.819 75.9332L-29.4648 76.5427L-17.9991 88.6902L-8.19036 79.4319L-19.6561 67.2845ZM-9.42919 79.4131L-17.9464 87.4523L-27.5835 77.2422L-17.1329 80.4471L-16.5221 79.8705L-19.1652 69.0983L-9.42919 79.4131ZM-52.5606 98.3752L-61.4094 106.727L-58.51 109.799L-52.8377 104.445L-51.388 105.981L-56.1004 110.429L-53.3493 113.344L-48.6369 108.896L-47.1707 110.449L-52.843 115.803L-49.9437 118.875L-41.0948 110.523L-52.5606 98.3752ZM-82.8646 149.948L-73.5271 141.135L-84.9928 128.987L-89.7227 133.452C-90.735 134.407 -91.3909 135.367 -91.6904 136.332C-91.9892 137.274 -92.0276 138.212 -91.8056 139.147C-91.5836 140.081 -91.1266 140.915 -90.4347 141.648C-89.5781 142.556 -88.53 143.107 -87.2906 143.301C-86.0622 143.484 -84.9134 143.29 -83.8444 142.721L-82.8646 149.948ZM-85.4829 130.671L-83.9701 141.784C-84.9035 142.357 -85.9172 142.577 -87.0112 142.443C-88.1052 142.31 -89.0311 141.842 -89.7889 141.039C-90.393 140.399 -90.785 139.669 -90.9651 138.849C-91.1451 138.028 -91.0819 137.21 -90.7753 136.392C-90.505 135.653 -89.9567 134.894 -89.1306 134.114L-85.4829 130.671ZM-84.6337 130.661L-78.7196 136.927L-83.2051 141.161L-84.6337 130.661ZM-74.7824 141.098L-82.2524 148.149L-83.0484 142.201L-82.4909 141.708L-78.1101 137.573L-74.7824 141.098ZM-116.5 158.726L-126.867 168.512L-115.245 171.105L-110.55 176.079L-109.904 175.47L-114.599 170.496L-116.5 158.726Z" fill="url(#paint6_linear)"/>
<path d="M45.1038 6.15925L44.4056 6.8182L47.2482 18.3262L35.9408 14.808L35.295 15.4175L46.7607 27.565L56.5695 18.3067L45.1038 6.15925ZM55.3306 18.2879L46.8134 26.3271L37.1763 16.117L47.6269 19.3219L48.2378 18.7453L45.5947 7.97306L55.3306 18.2879ZM12.1993 37.25L3.35046 45.6022L6.24983 48.6739L11.9221 43.32L13.3718 44.8559L8.65945 49.3038L11.4106 52.2185L16.1229 47.7706L17.5891 49.3239L11.9168 54.6779L14.8162 57.7496L23.665 49.3975L12.1993 37.25ZM-19.6561 67.2845L-20.3542 67.9434L-17.5116 79.4514L-28.819 75.9332L-29.4648 76.5427L-17.9991 88.6902L-8.19036 79.4319L-19.6561 67.2845ZM-9.42919 79.4131L-17.9464 87.4523L-27.5835 77.2422L-17.1329 80.4471L-16.5221 79.8705L-19.1652 69.0983L-9.42919 79.4131ZM-52.5606 98.3752L-61.4094 106.727L-58.51 109.799L-52.8377 104.445L-51.388 105.981L-56.1004 110.429L-53.3493 113.344L-48.6369 108.896L-47.1707 110.449L-52.843 115.803L-49.9437 118.875L-41.0948 110.523L-52.5606 98.3752ZM-82.8646 149.948L-73.5271 141.135L-84.9928 128.987L-89.7227 133.452C-90.735 134.407 -91.3909 135.367 -91.6904 136.332C-91.9892 137.274 -92.0276 138.212 -91.8056 139.147C-91.5836 140.081 -91.1266 140.915 -90.4347 141.648C-89.5781 142.556 -88.53 143.107 -87.2906 143.301C-86.0622 143.484 -84.9134 143.29 -83.8444 142.721L-82.8646 149.948ZM-85.4829 130.671L-83.9701 141.784C-84.9035 142.357 -85.9172 142.577 -87.0112 142.443C-88.1052 142.31 -89.0311 141.842 -89.7889 141.039C-90.393 140.399 -90.785 139.669 -90.9651 138.849C-91.1451 138.028 -91.0819 137.21 -90.7753 136.392C-90.505 135.653 -89.9567 134.894 -89.1306 134.114L-85.4829 130.671ZM-84.6337 130.661L-78.7196 136.927L-83.2051 141.161L-84.6337 130.661ZM-74.7824 141.098L-82.2524 148.149L-83.0484 142.201L-82.4909 141.708L-78.1101 137.573L-74.7824 141.098ZM-116.5 158.726L-126.867 168.512L-115.245 171.105L-110.55 176.079L-109.904 175.47L-114.599 170.496L-116.5 158.726Z" fill="url(#paint7_linear)"/>
<path d="M45.1038 6.15925L44.4056 6.8182L47.2482 18.3262L35.9408 14.808L35.295 15.4175L46.7607 27.565L56.5695 18.3067L45.1038 6.15925ZM55.3306 18.2879L46.8134 26.3271L37.1763 16.117L47.6269 19.3219L48.2378 18.7453L45.5947 7.97306L55.3306 18.2879ZM12.1993 37.25L3.35046 45.6022L6.24983 48.6739L11.9221 43.32L13.3718 44.8559L8.65945 49.3038L11.4106 52.2185L16.1229 47.7706L17.5891 49.3239L11.9168 54.6779L14.8162 57.7496L23.665 49.3975L12.1993 37.25ZM-19.6561 67.2845L-20.3542 67.9434L-17.5116 79.4514L-28.819 75.9332L-29.4648 76.5427L-17.9991 88.6902L-8.19036 79.4319L-19.6561 67.2845ZM-9.42919 79.4131L-17.9464 87.4523L-27.5835 77.2422L-17.1329 80.4471L-16.5221 79.8705L-19.1652 69.0983L-9.42919 79.4131ZM-52.5606 98.3752L-61.4094 106.727L-58.51 109.799L-52.8377 104.445L-51.388 105.981L-56.1004 110.429L-53.3493 113.344L-48.6369 108.896L-47.1707 110.449L-52.843 115.803L-49.9437 118.875L-41.0948 110.523L-52.5606 98.3752ZM-82.8646 149.948L-73.5271 141.135L-84.9928 128.987L-89.7227 133.452C-90.735 134.407 -91.3909 135.367 -91.6904 136.332C-91.9892 137.274 -92.0276 138.212 -91.8056 139.147C-91.5836 140.081 -91.1266 140.915 -90.4347 141.648C-89.5781 142.556 -88.53 143.107 -87.2906 143.301C-86.0622 143.484 -84.9134 143.29 -83.8444 142.721L-82.8646 149.948ZM-85.4829 130.671L-83.9701 141.784C-84.9035 142.357 -85.9172 142.577 -87.0112 142.443C-88.1052 142.31 -89.0311 141.842 -89.7889 141.039C-90.393 140.399 -90.785 139.669 -90.9651 138.849C-91.1451 138.028 -91.0819 137.21 -90.7753 136.392C-90.505 135.653 -89.9567 134.894 -89.1306 134.114L-85.4829 130.671ZM-84.6337 130.661L-78.7196 136.927L-83.2051 141.161L-84.6337 130.661ZM-74.7824 141.098L-82.2524 148.149L-83.0484 142.201L-82.4909 141.708L-78.1101 137.573L-74.7824 141.098ZM-116.5 158.726L-126.867 168.512L-115.245 171.105L-110.55 176.079L-109.904 175.47L-114.599 170.496L-116.5 158.726Z" fill="url(#paint8_linear)"/>
<path d="M238.104 6.15925L237.406 6.8182L240.248 18.3262L228.941 14.808L228.295 15.4175L239.761 27.565L249.569 18.3067L238.104 6.15925ZM248.331 18.2879L239.813 26.3271L230.176 16.117L240.627 19.3219L241.238 18.7453L238.595 7.97306L248.331 18.2879ZM205.199 37.25L196.35 45.6022L199.25 48.6739L204.922 43.32L206.372 44.8559L201.659 49.3038L204.411 52.2185L209.123 47.7706L210.589 49.3239L204.917 54.6779L207.816 57.7496L216.665 49.3975L205.199 37.25ZM173.344 67.2845L172.646 67.9434L175.488 79.4514L164.181 75.9332L163.535 76.5427L175.001 88.6902L184.81 79.4319L173.344 67.2845ZM183.571 79.4131L175.054 87.4523L165.416 77.2422L175.867 80.4471L176.478 79.8705L173.835 69.0983L183.571 79.4131ZM140.439 98.3752L131.591 106.727L134.49 109.799L140.162 104.445L141.612 105.981L136.9 110.429L139.651 113.344L144.363 108.896L145.829 110.449L140.157 115.803L143.056 118.875L151.905 110.523L140.439 98.3752ZM110.135 149.948L119.473 141.135L108.007 128.987L103.277 133.452C102.265 134.407 101.609 135.367 101.31 136.332C101.011 137.274 100.972 138.212 101.194 139.147C101.416 140.081 101.873 140.915 102.565 141.648C103.422 142.556 104.47 143.107 105.709 143.301C106.938 143.484 108.087 143.29 109.156 142.721L110.135 149.948ZM107.517 130.671L109.03 141.784C108.097 142.357 107.083 142.577 105.989 142.443C104.895 142.31 103.969 141.842 103.211 141.039C102.607 140.399 102.215 139.669 102.035 138.849C101.855 138.028 101.918 137.21 102.225 136.392C102.495 135.653 103.043 134.894 103.869 134.114L107.517 130.671ZM108.366 130.661L114.28 136.927L109.795 141.161L108.366 130.661ZM118.218 141.098L110.748 148.149L109.952 142.201L110.509 141.708L114.89 137.573L118.218 141.098ZM76.4999 158.726L66.1327 168.512L77.7554 171.105L82.4504 176.079L83.0962 175.47L78.4012 170.496L76.4999 158.726Z" fill="url(#paint9_linear)"/>
<path d="M238.104 6.15925L237.406 6.8182L240.248 18.3262L228.941 14.808L228.295 15.4175L239.761 27.565L249.569 18.3067L238.104 6.15925ZM248.331 18.2879L239.813 26.3271L230.176 16.117L240.627 19.3219L241.238 18.7453L238.595 7.97306L248.331 18.2879ZM205.199 37.25L196.35 45.6022L199.25 48.6739L204.922 43.32L206.372 44.8559L201.659 49.3038L204.411 52.2185L209.123 47.7706L210.589 49.3239L204.917 54.6779L207.816 57.7496L216.665 49.3975L205.199 37.25ZM173.344 67.2845L172.646 67.9434L175.488 79.4514L164.181 75.9332L163.535 76.5427L175.001 88.6902L184.81 79.4319L173.344 67.2845ZM183.571 79.4131L175.054 87.4523L165.416 77.2422L175.867 80.4471L176.478 79.8705L173.835 69.0983L183.571 79.4131ZM140.439 98.3752L131.591 106.727L134.49 109.799L140.162 104.445L141.612 105.981L136.9 110.429L139.651 113.344L144.363 108.896L145.829 110.449L140.157 115.803L143.056 118.875L151.905 110.523L140.439 98.3752ZM110.135 149.948L119.473 141.135L108.007 128.987L103.277 133.452C102.265 134.407 101.609 135.367 101.31 136.332C101.011 137.274 100.972 138.212 101.194 139.147C101.416 140.081 101.873 140.915 102.565 141.648C103.422 142.556 104.47 143.107 105.709 143.301C106.938 143.484 108.087 143.29 109.156 142.721L110.135 149.948ZM107.517 130.671L109.03 141.784C108.097 142.357 107.083 142.577 105.989 142.443C104.895 142.31 103.969 141.842 103.211 141.039C102.607 140.399 102.215 139.669 102.035 138.849C101.855 138.028 101.918 137.21 102.225 136.392C102.495 135.653 103.043 134.894 103.869 134.114L107.517 130.671ZM108.366 130.661L114.28 136.927L109.795 141.161L108.366 130.661ZM118.218 141.098L110.748 148.149L109.952 142.201L110.509 141.708L114.89 137.573L118.218 141.098ZM76.4999 158.726L66.1327 168.512L77.7554 171.105L82.4504 176.079L83.0962 175.47L78.4012 170.496L76.4999 158.726Z" fill="url(#paint10_linear)"/>
<path d="M238.104 6.15925L237.406 6.8182L240.248 18.3262L228.941 14.808L228.295 15.4175L239.761 27.565L249.569 18.3067L238.104 6.15925ZM248.331 18.2879L239.813 26.3271L230.176 16.117L240.627 19.3219L241.238 18.7453L238.595 7.97306L248.331 18.2879ZM205.199 37.25L196.35 45.6022L199.25 48.6739L204.922 43.32L206.372 44.8559L201.659 49.3038L204.411 52.2185L209.123 47.7706L210.589 49.3239L204.917 54.6779L207.816 57.7496L216.665 49.3975L205.199 37.25ZM173.344 67.2845L172.646 67.9434L175.488 79.4514L164.181 75.9332L163.535 76.5427L175.001 88.6902L184.81 79.4319L173.344 67.2845ZM183.571 79.4131L175.054 87.4523L165.416 77.2422L175.867 80.4471L176.478 79.8705L173.835 69.0983L183.571 79.4131ZM140.439 98.3752L131.591 106.727L134.49 109.799L140.162 104.445L141.612 105.981L136.9 110.429L139.651 113.344L144.363 108.896L145.829 110.449L140.157 115.803L143.056 118.875L151.905 110.523L140.439 98.3752ZM110.135 149.948L119.473 141.135L108.007 128.987L103.277 133.452C102.265 134.407 101.609 135.367 101.31 136.332C101.011 137.274 100.972 138.212 101.194 139.147C101.416 140.081 101.873 140.915 102.565 141.648C103.422 142.556 104.47 143.107 105.709 143.301C106.938 143.484 108.087 143.29 109.156 142.721L110.135 149.948ZM107.517 130.671L109.03 141.784C108.097 142.357 107.083 142.577 105.989 142.443C104.895 142.31 103.969 141.842 103.211 141.039C102.607 140.399 102.215 139.669 102.035 138.849C101.855 138.028 101.918 137.21 102.225 136.392C102.495 135.653 103.043 134.894 103.869 134.114L107.517 130.671ZM108.366 130.661L114.28 136.927L109.795 141.161L108.366 130.661ZM118.218 141.098L110.748 148.149L109.952 142.201L110.509 141.708L114.89 137.573L118.218 141.098ZM76.4999 158.726L66.1327 168.512L77.7554 171.105L82.4504 176.079L83.0962 175.47L78.4012 170.496L76.4999 158.726Z" fill="url(#paint11_linear)"/>
<path d="M303.104 6.15925L302.406 6.8182L305.248 18.3262L293.941 14.808L293.295 15.4175L304.761 27.565L314.569 18.3067L303.104 6.15925ZM313.331 18.2879L304.813 26.3271L295.176 16.117L305.627 19.3219L306.238 18.7453L303.595 7.97306L313.331 18.2879ZM270.199 37.25L261.35 45.6022L264.25 48.6739L269.922 43.32L271.372 44.8559L266.659 49.3038L269.411 52.2185L274.123 47.7706L275.589 49.3239L269.917 54.6779L272.816 57.7496L281.665 49.3975L270.199 37.25ZM238.344 67.2845L237.646 67.9434L240.488 79.4514L229.181 75.9332L228.535 76.5427L240.001 88.6902L249.81 79.4319L238.344 67.2845ZM248.571 79.4131L240.054 87.4523L230.416 77.2422L240.867 80.4471L241.478 79.8705L238.835 69.0983L248.571 79.4131ZM205.439 98.3752L196.591 106.727L199.49 109.799L205.162 104.445L206.612 105.981L201.9 110.429L204.651 113.344L209.363 108.896L210.829 110.449L205.157 115.803L208.056 118.875L216.905 110.523L205.439 98.3752ZM175.135 149.948L184.473 141.135L173.007 128.987L168.277 133.452C167.265 134.407 166.609 135.367 166.31 136.332C166.011 137.274 165.972 138.212 166.194 139.147C166.416 140.081 166.873 140.915 167.565 141.648C168.422 142.556 169.47 143.107 170.709 143.301C171.938 143.484 173.087 143.29 174.156 142.721L175.135 149.948ZM172.517 130.671L174.03 141.784C173.097 142.357 172.083 142.577 170.989 142.443C169.895 142.31 168.969 141.842 168.211 141.039C167.607 140.399 167.215 139.669 167.035 138.849C166.855 138.028 166.918 137.21 167.225 136.392C167.495 135.653 168.043 134.894 168.869 134.114L172.517 130.671ZM173.366 130.661L179.28 136.927L174.795 141.161L173.366 130.661ZM183.218 141.098L175.748 148.149L174.952 142.201L175.509 141.708L179.89 137.573L183.218 141.098ZM141.5 158.726L131.133 168.512L142.755 171.105L147.45 176.079L148.096 175.47L143.401 170.496L141.5 158.726Z" fill="url(#paint12_linear)"/>
<path d="M303.104 6.15925L302.406 6.8182L305.248 18.3262L293.941 14.808L293.295 15.4175L304.761 27.565L314.569 18.3067L303.104 6.15925ZM313.331 18.2879L304.813 26.3271L295.176 16.117L305.627 19.3219L306.238 18.7453L303.595 7.97306L313.331 18.2879ZM270.199 37.25L261.35 45.6022L264.25 48.6739L269.922 43.32L271.372 44.8559L266.659 49.3038L269.411 52.2185L274.123 47.7706L275.589 49.3239L269.917 54.6779L272.816 57.7496L281.665 49.3975L270.199 37.25ZM238.344 67.2845L237.646 67.9434L240.488 79.4514L229.181 75.9332L228.535 76.5427L240.001 88.6902L249.81 79.4319L238.344 67.2845ZM248.571 79.4131L240.054 87.4523L230.416 77.2422L240.867 80.4471L241.478 79.8705L238.835 69.0983L248.571 79.4131ZM205.439 98.3752L196.591 106.727L199.49 109.799L205.162 104.445L206.612 105.981L201.9 110.429L204.651 113.344L209.363 108.896L210.829 110.449L205.157 115.803L208.056 118.875L216.905 110.523L205.439 98.3752ZM175.135 149.948L184.473 141.135L173.007 128.987L168.277 133.452C167.265 134.407 166.609 135.367 166.31 136.332C166.011 137.274 165.972 138.212 166.194 139.147C166.416 140.081 166.873 140.915 167.565 141.648C168.422 142.556 169.47 143.107 170.709 143.301C171.938 143.484 173.087 143.29 174.156 142.721L175.135 149.948ZM172.517 130.671L174.03 141.784C173.097 142.357 172.083 142.577 170.989 142.443C169.895 142.31 168.969 141.842 168.211 141.039C167.607 140.399 167.215 139.669 167.035 138.849C166.855 138.028 166.918 137.21 167.225 136.392C167.495 135.653 168.043 134.894 168.869 134.114L172.517 130.671ZM173.366 130.661L179.28 136.927L174.795 141.161L173.366 130.661ZM183.218 141.098L175.748 148.149L174.952 142.201L175.509 141.708L179.89 137.573L183.218 141.098ZM141.5 158.726L131.133 168.512L142.755 171.105L147.45 176.079L148.096 175.47L143.401 170.496L141.5 158.726Z" fill="url(#paint13_linear)"/>
<path d="M303.104 6.15925L302.406 6.8182L305.248 18.3262L293.941 14.808L293.295 15.4175L304.761 27.565L314.569 18.3067L303.104 6.15925ZM313.331 18.2879L304.813 26.3271L295.176 16.117L305.627 19.3219L306.238 18.7453L303.595 7.97306L313.331 18.2879ZM270.199 37.25L261.35 45.6022L264.25 48.6739L269.922 43.32L271.372 44.8559L266.659 49.3038L269.411 52.2185L274.123 47.7706L275.589 49.3239L269.917 54.6779L272.816 57.7496L281.665 49.3975L270.199 37.25ZM238.344 67.2845L237.646 67.9434L240.488 79.4514L229.181 75.9332L228.535 76.5427L240.001 88.6902L249.81 79.4319L238.344 67.2845ZM248.571 79.4131L240.054 87.4523L230.416 77.2422L240.867 80.4471L241.478 79.8705L238.835 69.0983L248.571 79.4131ZM205.439 98.3752L196.591 106.727L199.49 109.799L205.162 104.445L206.612 105.981L201.9 110.429L204.651 113.344L209.363 108.896L210.829 110.449L205.157 115.803L208.056 118.875L216.905 110.523L205.439 98.3752ZM175.135 149.948L184.473 141.135L173.007 128.987L168.277 133.452C167.265 134.407 166.609 135.367 166.31 136.332C166.011 137.274 165.972 138.212 166.194 139.147C166.416 140.081 166.873 140.915 167.565 141.648C168.422 142.556 169.47 143.107 170.709 143.301C171.938 143.484 173.087 143.29 174.156 142.721L175.135 149.948ZM172.517 130.671L174.03 141.784C173.097 142.357 172.083 142.577 170.989 142.443C169.895 142.31 168.969 141.842 168.211 141.039C167.607 140.399 167.215 139.669 167.035 138.849C166.855 138.028 166.918 137.21 167.225 136.392C167.495 135.653 168.043 134.894 168.869 134.114L172.517 130.671ZM173.366 130.661L179.28 136.927L174.795 141.161L173.366 130.661ZM183.218 141.098L175.748 148.149L174.952 142.201L175.509 141.708L179.89 137.573L183.218 141.098ZM141.5 158.726L131.133 168.512L142.755 171.105L147.45 176.079L148.096 175.47L143.401 170.496L141.5 158.726Z" fill="url(#paint14_linear)"/>
</g>
<defs>
<linearGradient id="paint0_linear" x1="68.3215" y1="60.2522" x2="108.133" y2="102.431" gradientUnits="userSpaceOnUse">
<stop offset="0.244792" stop-color="#09B092"/>
<stop offset="1" stop-color="white"/>
</linearGradient>
<linearGradient id="paint1_linear" x1="68.3215" y1="60.2522" x2="108.133" y2="102.431" gradientUnits="userSpaceOnUse">
<stop offset="0.244792" stop-color="#09B092"/>
<stop offset="1" stop-color="white"/>
</linearGradient>
<linearGradient id="paint2_linear" x1="68.3215" y1="60.2522" x2="108.133" y2="102.431" gradientUnits="userSpaceOnUse">
<stop offset="0.244792" stop-color="#09B092"/>
<stop offset="1" stop-color="white"/>
</linearGradient>
<linearGradient id="paint3_linear" x1="5.32146" y1="60.2522" x2="45.1329" y2="102.431" gradientUnits="userSpaceOnUse">
<stop offset="0.244792" stop-color="#09B092"/>
<stop offset="1" stop-color="white"/>
</linearGradient>
<linearGradient id="paint4_linear" x1="5.32146" y1="60.2522" x2="45.1329" y2="102.431" gradientUnits="userSpaceOnUse">
<stop offset="0.244792" stop-color="#09B092"/>
<stop offset="1" stop-color="white"/>
</linearGradient>
<linearGradient id="paint5_linear" x1="5.32146" y1="60.2522" x2="45.1329" y2="102.431" gradientUnits="userSpaceOnUse">
<stop offset="0.244792" stop-color="#09B092"/>
<stop offset="1" stop-color="white"/>
</linearGradient>
<linearGradient id="paint6_linear" x1="-60.6785" y1="60.2522" x2="-20.8671" y2="102.431" gradientUnits="userSpaceOnUse">
<stop offset="0.244792" stop-color="#09B092"/>
<stop offset="1" stop-color="white"/>
</linearGradient>
<linearGradient id="paint7_linear" x1="-60.6785" y1="60.2522" x2="-20.8671" y2="102.431" gradientUnits="userSpaceOnUse">
<stop offset="0.244792" stop-color="#09B092"/>
<stop offset="1" stop-color="white"/>
</linearGradient>
<linearGradient id="paint8_linear" x1="-60.6785" y1="60.2522" x2="-20.8671" y2="102.431" gradientUnits="userSpaceOnUse">
<stop offset="0.244792" stop-color="#09B092"/>
<stop offset="1" stop-color="white"/>
</linearGradient>
<linearGradient id="paint9_linear" x1="132.321" y1="60.2522" x2="172.133" y2="102.431" gradientUnits="userSpaceOnUse">
<stop offset="0.244792" stop-color="#09B092"/>
<stop offset="1" stop-color="white"/>
</linearGradient>
<linearGradient id="paint10_linear" x1="132.321" y1="60.2522" x2="172.133" y2="102.431" gradientUnits="userSpaceOnUse">
<stop offset="0.244792" stop-color="#09B092"/>
<stop offset="1" stop-color="white"/>
</linearGradient>
<linearGradient id="paint11_linear" x1="132.321" y1="60.2522" x2="172.133" y2="102.431" gradientUnits="userSpaceOnUse">
<stop offset="0.244792" stop-color="#09B092"/>
<stop offset="1" stop-color="white"/>
</linearGradient>
<linearGradient id="paint12_linear" x1="197.321" y1="60.2522" x2="237.133" y2="102.431" gradientUnits="userSpaceOnUse">
<stop offset="0.244792" stop-color="#09B092"/>
<stop offset="1" stop-color="white"/>
</linearGradient>
<linearGradient id="paint13_linear" x1="197.321" y1="60.2522" x2="237.133" y2="102.431" gradientUnits="userSpaceOnUse">
<stop offset="0.244792" stop-color="#09B092"/>
<stop offset="1" stop-color="white"/>
</linearGradient>
<linearGradient id="paint14_linear" x1="197.321" y1="60.2522" x2="237.133" y2="102.431" gradientUnits="userSpaceOnUse">
<stop offset="0.244792" stop-color="#09B092"/>
<stop offset="1" stop-color="white"/>
</linearGradient>
<clipPath id="clip0">
<rect width="193" height="183" fill="white"/>
</clipPath>
</defs>
</svg>
